# xmcd
#
# Track frame offsets:
#	150
#	23647
#	46099
#	66825
#	92065
#	111609
#	137778
#	157341
#	178652
#	199259
#	215186
#	234669
#	259396
#
# Disc length: 3755 seconds
#
# Revision: 3
# Processed by: cddbd v1.5.2PL0 Copyright (c) Steve Scherf et al.
# Submitted via: audiograbber 1.83.01
#
DISCID=cb0ea90d
DTITLE=Various Artist - stereoplay 2017-04 - Nordic Sounds [Dynaudio]
DYEAR=2017
DGENRE=Audiophile
TTITLE0=Kari Bremnes - E Du Nord
TTITLE1=Karl Seglem - Helgheim
TTITLE2=Viktoria Tolstoy - Love Song For A Vampire
TTITLE3=Pristine - Don't Save My Soul
TTITLE4=Blues Pills - Gone So Long
TTITLE5=Kerstin Blodig - The Power Of The Moon
TTITLE6=Christian Kjellvander - Oregon Coast
TTITLE7=Nils Petter Molvaer - Jackson Reef
TTITLE8=Turboweekend - Spider Of Light
TTITLE9=WhoMadeWho - Hi and Low
TTITLE10=Edvard Grieg - Peer Gynt Suiten - Morgenstimmung [Bergen Philharmonic 
TTITLE10=Orchestra - Ole Kristian Ruud]
TTITLE11=Edvard Grieg - Peer Gynt Suiten - Solveigs Lied [Bergen Philharmonic O
TTITLE11=rchestra - Ole Kristian Ruud]
TTITLE12=Carl Nielsen - Klarinettenkonzert, 2. Satz: Poco Adagio [Martin Fröst 
TTITLE12=Lathi Symphony Orchestra]
EXTD=
EXTT0=
EXTT1=
EXTT2=
EXTT3=
EXTT4=
EXTT5=
EXTT6=
EXTT7=
EXTT8=
EXTT9=
EXTT10=
EXTT11=
EXTT12=
PLAYORDER=
